<?xml version="1.0" encoding="utf-8"?>
<svg viewBox="72.08 0.174 134.792 82.4635" width="134.792" height="82.4635" xmlns="http://www.w3.org/2000/svg">
  <defs>
    <style>.cls-1{fill:#1d1934;}.cls-2{fill:#ffffff;}</style>
  </defs>
  <path class="cls-2" d="M 206.822 0.934 C 206.822 0.515 206.482 0.174 206.062 0.174 L 156.792 0.174 C 148.509 0.169 140.404 2.581 133.472 7.114 L 72.472 7.114 C 72.172 7.113 71.983 7.438 72.132 7.698 C 72.135 7.704 72.138 7.709 72.142 7.714 L 77.352 16.104 C 77.418 16.224 77.545 16.297 77.682 16.294 L 123.472 16.294 C 120.808 19.647 118.692 23.4 117.202 27.414 L 85.022 27.414 C 84.717 27.419 84.529 27.75 84.682 28.014 L 89.892 36.404 C 89.963 36.524 90.093 36.596 90.232 36.594 L 115.022 36.594 C 114.962 37.074 114.912 37.594 114.872 38.054 C 114.613 41.277 114.734 44.52 115.232 47.714 L 97.612 47.714 C 97.312 47.713 97.123 48.038 97.272 48.298 C 97.275 48.304 97.278 48.309 97.282 48.314 L 102.472 56.704 C 102.541 56.821 102.666 56.893 102.802 56.894 L 117.772 56.894 C 125.682 76.324 147.982 88.424 171.372 79.824 C 183.223 75.408 192.223 65.556 195.552 53.354 C 197.539 46.375 197.731 39.008 196.112 31.934 L 206.112 31.934 C 206.532 31.934 206.872 31.594 206.872 31.174 L 206.822 0.934 Z M 197.822 22.934 L 156.392 22.934 C 147.102 22.934 138.942 29.634 137.712 38.834 C 136.009 51.067 146.574 61.486 158.782 59.614 C 166.132 58.514 173.272 51.234 174.232 43.864 C 174.796 39.72 173.929 35.508 171.772 31.924 L 186.832 31.924 C 194.13 55.678 172.977 78.424 148.757 72.867 C 124.537 67.31 115.415 37.619 132.337 19.422 C 138.443 12.856 147.005 9.125 155.972 9.124 L 197.862 9.124 L 197.822 22.934 Z M 160.212 49.754 C 153.867 53.105 146.276 48.33 146.547 41.161 C 146.599 39.762 146.967 38.392 147.622 37.154 C 148.524 35.394 149.954 33.96 151.712 33.054 C 158.066 29.706 165.662 34.493 165.384 41.669 C 165.33 43.065 164.964 44.43 164.312 45.664 C 163.406 47.422 161.972 48.853 160.212 49.754 Z"/>
</svg>